<?xml version="1.0" encoding="UTF-8"?>
<svg xmlns="http://www.w3.org/2000/svg" version="1.1" viewBox="0 0 92 39" >
  <defs>
    <style>
      .cls-1 {
        fill: #9cce3c;
      }

      .cls-2 {
        fill: #b0fa3a;
      }

      .cls-3 {
        fill: #181e29;
      }
    </style>
  </defs>
  <!-- Generator: Adobe Illustrator 28.7.1, SVG Export Plug-In . SVG Version: 1.2.0 Build 142)  -->
  <g>
    <g id="imalogo">
      <polygon class="cls-3" points="2.9 30.3 2.9 12.3 .3 12.3 .3 8 10.1 8 10.1 12.3 7.4 12.3 7.4 30.3 2.9 30.3"/>
      <path class="cls-3" d="M17.5,30.5c-1.9,0-3.2-.5-4.1-1.6-.9-1-1.3-2.6-1.3-4.6v-13.8h4.4v13.8c0,.4,0,.7,0,1.1,0,.3.1.6.3.8.2.2.4.3.7.3s.6-.1.8-.3c.2-.2.2-.5.3-.9,0-.3,0-.7,0-1.1v-13.8h4.4v13.8c0,2-.4,3.6-1.3,4.6-.9,1-2.3,1.6-4.1,1.6Z"/>
      <path class="cls-3" d="M25,30.3V10.5h6.8c1.1,0,2,.2,2.6.7.6.5,1,1.1,1.3,2,.2.8.3,1.8.3,2.9s-.2,2.4-.6,3.2c-.4.8-1,1.3-1.8,1.6.8.1,1.3.5,1.6,1,.3.6.5,1.3.5,2.2v6.1h-4.5v-6.4c0-.7-.1-1.1-.4-1.2-.3-.2-.7-.2-1.3-.2v7.8h-4.5ZM29.6,18.6h1.1c.6,0,.9-.7.9-2s0-1.3-.2-1.6c-.1-.3-.4-.4-.8-.4h-1v3.9Z"/>
      <polygon class="cls-3" points="38 30.3 38 10.5 42.6 10.5 44.9 21.3 44.9 10.5 49 10.5 49 30.3 44.6 30.3 42.1 19.6 42.1 30.3 38 30.3"/>
      <polygon class="cls-3" points="80 30.3 80 8 84.6 8 86.7 18.7 86.7 8 91 8 91 30.3 86.6 30.3 84.4 19.2 84.4 30.3 80 30.3"/>
      <g>
        <path class="cls-1" d="M64.5,32.5c7.5,0,13.5-6,13.5-13.4s-6-13.4-13.5-13.4-13.5,6-13.5,13.4,6,13.4,13.5,13.4Z"/>
        <rect class="cls-1" x="51" y="17.2" width="27" height="2"/>
        <path class="cls-2" d="M64.5,30.3c7.5,0,13.5-6,13.5-13.4,0-7.4-6-13.4-13.5-13.3-7.5,0-13.5,6-13.5,13.4,0,7.4,6,13.4,13.5,13.3Z"/>
      </g>
    </g>
  </g>
</svg>